<svg width="335" height="667" viewBox="0 0 335 667" fill="none" xmlns="http://www.w3.org/2000/svg">
<path d="M10.1763 190.226C3.92724 183.975 0.416727 175.498 0.416727 166.66C0.416727 157.821 3.92724 149.344 10.1763 143.093L143.51 9.75954C149.761 3.51051 158.237 0 167.076 0C175.915 0 184.392 3.51051 190.643 9.75954L323.976 143.093C327.16 146.168 329.699 149.846 331.446 153.913C333.193 157.98 334.113 162.354 334.151 166.779C334.19 171.205 333.346 175.595 331.67 179.691C329.994 183.788 327.519 187.51 324.389 190.639C321.26 193.769 317.538 196.244 313.441 197.92C309.345 199.596 304.956 200.44 300.53 200.401C296.104 200.363 291.73 199.443 287.663 197.696C283.596 195.949 279.918 193.41 276.843 190.226L167.076 80.4595L57.3096 190.226C51.0587 196.475 42.5817 199.986 33.7429 199.986C24.9041 199.986 16.4272 196.475 10.1763 190.226ZM10.1763 523.56L143.51 656.893C149.761 663.142 158.237 666.652 167.076 666.652C175.915 666.652 184.392 663.142 190.643 656.893L323.976 523.56C330.048 517.273 333.408 508.853 333.332 500.113C333.256 491.373 329.75 483.013 323.57 476.832C317.39 470.652 309.03 467.146 300.29 467.07C291.55 466.994 283.13 470.354 276.843 476.426L167.076 586.193L57.3096 476.426C54.2347 473.242 50.5565 470.703 46.4897 468.956C42.4229 467.209 38.049 466.29 33.623 466.251C29.197 466.213 24.8077 467.056 20.7111 468.732C16.6146 470.408 12.8929 472.883 9.7631 476.013C6.63334 479.143 4.15824 482.865 2.48221 486.961C0.806181 491.058 -0.037202 495.447 0.00125857 499.873C0.0397191 504.299 0.959262 508.673 2.70623 512.74C4.4532 516.806 6.99261 520.485 10.1763 523.56Z" fill="#90DDF0"/>
</svg>
